<svg width="20" height="20" viewBox="0 0 20 20" fill="none" xmlns="http://www.w3.org/2000/svg">
<g clip-path="url(#clip0_103_4227)">
<path d="M10.0001 5.83335C10.8334 5.36668 12.3167 4.16668 14.1667 4.16668C15.2463 4.14652 16.2901 4.55391 17.0706 5.30006C17.8511 6.04621 18.305 7.07062 18.3334 8.15002C18.3334 11.6667 15.8334 18.3333 13.3334 18.3333C12.2917 18.3333 11.2501 17.45 10.0001 17.45C8.75008 17.45 7.70842 18.3333 6.66675 18.3333C4.16675 18.3333 1.66675 11.6667 1.66675 8.15002C1.69298 7.0699 2.14622 6.0442 2.92719 5.29758C3.70816 4.55097 4.75321 4.14432 5.83341 4.16668C7.68342 4.16668 9.16675 5.36668 10.0001 5.83335ZM10.0001 5.83335C10.0001 3.33335 9.16675 2.08334 8.33342 1.66667" stroke="#16B576" stroke-width="2" stroke-linecap="round" stroke-linejoin="round"/>
</g>
<defs>
<clipPath id="clip0_103_4227">
<rect width="20" height="20" fill="white"/>
</clipPath>
</defs>
</svg>
