<svg width="20" height="20" viewBox="0 0 20 20" fill="none" xmlns="http://www.w3.org/2000/svg">
<path d="M5.83333 17.5H14.1667M9.48324 9.99998C8.97855 10.0047 8.49073 9.81839 8.11764 9.47848C7.74455 9.13856 7.51378 8.67015 7.4716 8.16719C7.42942 7.66424 7.57897 7.16394 7.89023 6.76663C8.2015 6.36932 8.65148 6.1044 9.14991 6.02498C9.07011 5.67184 9.08766 5.30365 9.2007 4.9597C9.31374 4.61575 9.51802 4.30894 9.79176 4.07199C10.0655 3.83503 10.3984 3.67683 10.755 3.61425C11.1116 3.55167 11.4785 3.58706 11.8166 3.71665C11.9646 3.48361 12.1593 3.28375 12.3883 3.12965C12.6174 2.97554 12.8759 2.87052 13.1475 2.8212C13.4191 2.77189 13.698 2.77934 13.9666 2.84309C14.2352 2.90685 14.4877 3.02552 14.7082 3.19165C15.0929 2.88933 15.575 2.73848 16.0633 2.76764C16.5517 2.7968 17.0124 3.00394 17.3584 3.34987C17.7043 3.6958 17.9114 4.15653 17.9406 4.64489C17.9697 5.13324 17.8189 5.61534 17.5166 5.99998C17.7047 6.24992 17.8317 6.54052 17.8871 6.84842C17.9425 7.15632 17.925 7.47294 17.8358 7.77282C17.7467 8.0727 17.5884 8.34749 17.3738 8.57509C17.1591 8.80269 16.8941 8.97676 16.5999 9.08331C16.6759 9.38326 16.6845 9.69634 16.6249 9.99998M10.8333 10L14.1667 6.66667M9.08338 6.04164C8.62628 5.55437 8.033 5.21609 7.38086 5.07091C6.72871 4.92573 6.04795 4.98038 5.42732 5.22774C4.80669 5.47509 4.27496 5.90368 3.90146 6.45763C3.52795 7.01158 3.32999 7.66521 3.33338 8.33331C3.33338 8.94164 3.50004 9.50831 3.78338 9.99998M10 17.5C11.9891 17.5 13.8968 16.7098 15.3033 15.3033C16.7098 13.8968 17.5 11.9891 17.5 10H2.5C2.5 11.9891 3.29018 13.8968 4.6967 15.3033C6.10322 16.7098 8.01088 17.5 10 17.5Z" stroke="#9DA0AF" stroke-width="2" stroke-linecap="round" stroke-linejoin="round"/>
</svg>
