<svg width="50" height="100" viewBox="0 0 50 100" fill="none" xmlns="http://www.w3.org/2000/svg">
<path d="M41.9466 7.30181C38.7783 15.7717 35.5975 24.2259 32.5085 32.7368C32.2906 33.3247 32.6418 34.3644 33.0581 34.9801C43.0747 49.6123 44.6077 64.5635 38.2057 79.5746C37.1416 82.0702 35.2388 84.19 32.5611 85.8362C29.0339 88.016 24.7415 86.7864 22.3056 83.0212C20.1739 79.7299 19.6582 76.1597 19.5213 72.5323C19.2465 64.5024 20.8482 56.8503 22.7177 49.2988C23.9008 44.5119 25.379 39.8303 26.7499 34.9534C24.5906 33.8604 21.647 34.1281 20.0532 35.5668C17.0186 38.2803 16.0859 40.2273 14.4488 43.1001C9.30886 52.1141 6.6774 62.186 5.58579 72.6866C4.7724 80.5018 4.53154 88.4157 4.0453 96.2873C3.99872 96.9728 4.01912 97.6835 3.93518 98.3218C3.80573 99.3194 3.40236 99.9706 2.54303 99.9856C1.72641 100.144 1.13928 98.9549 0.878885 98.298C0.448251 97.2175 0.22027 96.0359 0.18077 94.9139C-0.611161 77.2076 1.03881 60.0581 8.33424 44.3306C9.93914 40.8812 12.1172 37.6801 14.4423 34.6948C17.7947 30.4179 22.2768 28.5523 28.2189 31.0046C31.5333 23.0766 34.7961 15.2621 38.1128 7.30725C35.8909 8.96407 33.7876 10.5325 31.6694 12.112C31.3139 12.3771 30.9957 12.6895 30.6153 12.9231C29.5903 13.5623 28.4783 14.7169 27.219 13.3031C25.9846 11.9208 27.2609 10.9441 28.0927 10.2988C32.2864 6.99639 36.5321 3.73022 40.9001 0.648288C42.6853 -0.607845 44.5008 -0.0092984 45.1096 2.1899C46.93 8.54166 48.466 14.9804 49.9623 21.3987C50.1035 21.9942 49.8835 23.2345 48.6906 23.4233C47.7447 23.4778 46.9129 22.3961 46.6945 21.7329C45.387 17.7269 44.2501 13.6688 43.0711 9.61709C42.8575 8.90032 42.6735 8.16146 42.4747 7.43364C42.3356 6.18575 42.1989 6.63815 41.9466 7.30181ZM31.117 38.0045C30.7132 37.4045 30.4986 38.741 30.44 38.9349C27.3729 49.0813 24.6431 59.3268 24.2664 70.1954C24.1625 73.1013 24.5695 76.1768 25.367 79.0613C26.441 82.8909 29.6025 83.7623 32.1191 80.9596C33.7459 79.1458 35.2102 76.9776 36.0373 74.6588C39.5887 64.827 38.3017 51.7949 34.8103 44.4615C33.451 41.6706 32.928 41.0093 31.117 38.0045Z" fill="#9DA0AF"/>
</svg>
